# Blender 4.1.1
# www.blender.org
mtllib caldron_advanced.mtl
o Fluid
v 0.000000 -0.023641 0.661063
v -0.589365 -0.023641 0.316587
v 0.000000 -0.023641 0.062541
v -0.587893 -0.023641 0.083632
v -0.365480 -0.023641 0.062632
v -0.366384 -0.023641 0.449531
v -0.182740 -0.023641 0.043343
v -0.183192 -0.023641 0.555297
v 0.866025 -0.023641 -0.500000
v 0.866025 -0.023641 0.500000
v 0.000000 -0.023641 1.000000
v -0.866025 -0.023641 0.500000
v -0.866025 -0.023641 -0.500000
v 0.654083 -0.023641 -0.377635
v 0.654083 -0.023641 0.377635
v 0.000000 -0.023641 0.755271
v -0.654083 -0.023641 0.377635
v -0.654083 -0.023641 -0.377635
v 0.589365 -0.023641 0.316587
v 0.587893 -0.023641 0.083632
v 0.365480 -0.023641 0.062632
v 0.366384 -0.023641 0.449531
v 0.182740 -0.023641 0.043343
v 0.183192 -0.023641 0.555297
v -0.866025 -0.023641 -0.500000
v -0.866025 -0.023641 0.500000
v 0.866025 -0.023641 0.500000
v 0.866025 -0.023641 -0.500000
v -0.654083 -0.023641 -0.377635
v -0.654083 -0.023641 0.377635
v 0.654083 -0.023641 0.377635
v 0.654083 -0.023641 -0.377635
v 0.000000 -0.353641 0.661063
v -0.589365 -0.353641 0.316587
v 0.000000 -0.353641 0.062541
v -0.587893 -0.353641 0.083632
v -0.365480 -0.353641 0.062632
v -0.366384 -0.353641 0.449531
v -0.182740 -0.353641 0.043343
v -0.183192 -0.353641 0.555297
v 0.866025 -0.353641 -0.500000
v 0.866025 -0.353641 0.500000
v 0.000000 -0.353641 1.000000
v -0.866025 -0.353641 0.500000
v -0.866025 -0.353641 -0.500000
v 0.654083 -0.353641 -0.377635
v 0.654083 -0.353641 0.377635
v 0.000000 -0.353641 0.755271
v -0.654083 -0.353641 0.377635
v -0.654083 -0.353641 -0.377635
v 0.589365 -0.353641 0.316587
v 0.587893 -0.353641 0.083632
v 0.365480 -0.353641 0.062632
v 0.366384 -0.353641 0.449531
v 0.182740 -0.353641 0.043343
v 0.183192 -0.353641 0.555297
v -0.866025 -0.353641 -0.500000
v -0.866025 -0.353641 0.500000
v 0.866025 -0.353641 0.500000
v 0.866025 -0.353641 -0.500000
v -0.654083 -0.353641 -0.377635
v -0.654083 -0.353641 0.377635
v 0.654083 -0.353641 0.377635
v 0.654083 -0.353641 -0.377635
vn -0.0000 1.0000 -0.0000
vn -0.0000 -1.0000 -0.0000
vn 0.1045 -0.0000 -0.9945
vn -0.5000 -0.0000 0.8660
vn -1.0000 -0.0000 -0.0063
vn -0.0940 -0.0000 -0.9956
vn -0.5121 -0.0000 0.8589
vn -0.1050 -0.0000 -0.9945
vn -1.0000 -0.0000 -0.0000
vn -0.5000 -0.0000 -0.8660
vn 0.5000 -0.0000 -0.8660
vn 1.0000 -0.0000 -0.0000
vn 0.5000 -0.0000 0.8660
vn -0.1045 -0.0000 -0.9945
vn 1.0000 -0.0000 -0.0063
vn 0.0940 -0.0000 -0.9956
vn 0.5121 -0.0000 0.8589
vn 0.1050 -0.0000 -0.9945
vt 0.000000 0.000000
vt 0.406980 0.340632
vt 0.406980 0.159368
vt 0.457846 0.130000
vt 0.457846 0.370000
vt 0.250000 0.068735
vt 0.250000 0.010000
vt 0.093020 0.159368
vt 0.042154 0.130000
vt 0.093020 0.340632
vt 0.042154 0.370000
s 0
f 5/1/1 4/1/1 2/1/1 6/1/1
f 7/1/1 5/1/1 6/1/1 8/1/1
f 3/1/1 7/1/1 8/1/1 1/1/1
f 14/2/1 15/3/1 10/4/1 9/5/1
f 15/3/1 16/6/1 11/7/1 10/4/1
f 16/6/1 17/8/1 12/9/1 11/7/1
f 17/8/1 18/10/1 13/11/1 12/9/1
f 21/1/1 22/1/1 19/1/1 20/1/1
f 23/1/1 24/1/1 22/1/1 21/1/1
f 3/1/1 1/1/1 24/1/1 23/1/1
f 29/2/1 25/5/1 26/4/1 30/3/1
f 30/3/1 26/4/1 11/7/1 16/6/1
f 16/6/1 11/7/1 27/9/1 31/8/1
f 31/8/1 27/9/1 28/11/1 32/10/1
f 37/1/2 38/1/2 34/1/2 36/1/2
f 39/1/2 40/1/2 38/1/2 37/1/2
f 35/1/2 33/1/2 40/1/2 39/1/2
f 46/2/2 41/5/2 42/4/2 47/3/2
f 47/3/2 42/4/2 43/7/2 48/6/2
f 48/6/2 43/7/2 44/9/2 49/8/2
f 49/8/2 44/9/2 45/11/2 50/10/2
f 53/1/2 52/1/2 51/1/2 54/1/2
f 55/1/2 53/1/2 54/1/2 56/1/2
f 35/1/2 55/1/2 56/1/2 33/1/2
f 61/2/2 62/3/2 58/4/2 57/5/2
f 62/3/2 48/6/2 43/7/2 58/4/2
f 48/6/2 63/8/2 59/9/2 43/7/2
f 63/8/2 64/10/2 60/11/2 59/9/2
f 7/1/3 3/1/3 35/1/3 39/1/3
f 1/1/4 8/1/4 40/1/4 33/1/4
f 2/1/5 4/1/5 36/1/5 34/1/5
f 4/1/6 5/1/6 37/1/6 36/1/6
f 6/1/7 2/1/7 34/1/7 38/1/7
f 5/1/8 7/1/8 39/1/8 37/1/8
f 8/1/4 6/1/4 38/1/4 40/1/4
f 15/3/9 14/2/9 46/2/9 47/3/9
f 16/6/10 15/3/10 47/3/10 48/6/10
f 17/8/11 16/6/11 48/6/11 49/8/11
f 18/10/12 17/8/12 49/8/12 50/10/12
f 9/5/12 10/4/12 42/4/12 41/5/12
f 10/4/13 11/7/13 43/7/13 42/4/13
f 11/7/4 12/9/4 44/9/4 43/7/4
f 12/9/9 13/11/9 45/11/9 44/9/9
f 14/2/10 9/5/10 41/5/10 46/2/10
f 13/11/11 18/10/11 50/10/11 45/11/11
f 3/1/14 23/1/14 55/1/14 35/1/14
f 24/1/13 1/1/13 33/1/13 56/1/13
f 20/1/15 19/1/15 51/1/15 52/1/15
f 21/1/16 20/1/16 52/1/16 53/1/16
f 19/1/17 22/1/17 54/1/17 51/1/17
f 23/1/18 21/1/18 53/1/18 55/1/18
f 22/1/13 24/1/13 56/1/13 54/1/13
f 29/2/12 30/3/12 62/3/12 61/2/12
f 30/3/11 16/6/11 48/6/11 62/3/11
f 16/6/10 31/8/10 63/8/10 48/6/10
f 31/8/9 32/10/9 64/10/9 63/8/9
f 26/4/9 25/5/9 57/5/9 58/4/9
f 11/7/4 26/4/4 58/4/4 43/7/4
f 27/9/13 11/7/13 43/7/13 59/9/13
f 28/11/12 27/9/12 59/9/12 60/11/12
f 25/5/11 29/2/11 61/2/11 57/5/11
f 32/10/10 28/11/10 60/11/10 64/10/10
